.
..............................Site Info...........................

 -   http://www.scenetime.com  *_*   

SceneTime is going to Close sign up on march/1, hurry up! get in before the doors are closed.

     We care to share . Join us on  http://www.scenetime.com 

    Be the first to get new release at  http://www.scenetime.com

        Seed back for speed


...................................NFO:.................................................                                                                                                     
       
     
     
       
       
     
     
                                         
                                         
                EXVID                    
                                         
         
                                         
         Filled the Archives             
                                         
         
                                         
                With:                    
                                         
         
                                         
                                    
     E240                           
                                    
     SP               (C) 2009      
                                         
     
     
     
                                                                                  
                                                                                   
             Conviction.2010.Extended.Cut.DVDRip.XviD-EXViD                         
                                                                                   
                                                                                  
     
                                                                                               
EXViD aims to iNTERNAL those releases which have been lost in the archives.
EXViD aims to PRE non-internal releases which have poor sources and are likely skipped by others. 
http://www.imdb.com/title/tt1244754/
Subtitles: Dutch
Date: 2011.10

Director: Tony Goldwyn

Genre: Biography | Drama

Plot:
A working mother puts herself through law school in an effort to represent her brother, who
has been wrongfully convicted of murder and has exhausted his chances to appeal his conviction
through public defenders.

Cast:
Hilary Swank 	 ... 	 Betty Anne Waters
Sam Rockwell 	 ... 	 Kenny Waters
Thomas D. Mahard 	 ... 	 Law Professor (as Thomas Mahard)
Owen Campbell 	 ... 	 Ben
Conor Donovan 	 ... 	 Richard
Laurie Brown 	 ... 	 Law Professor 2
John Pyper-Ferguson 	 ... 	 Aidan
Minnie Driver 	 ... 	 Abra Rice
Ele Bardha 	 ... 	 Don
Melissa Leo 	 ... 	 Nancy Taylor
Rusty Mewha 	 ... 	 Desk Sergeant
Marc Macaulay 	 ... 	 Officer Boisseau
Bailee Madison 	 ... 	 Young Betty Anne
Tobias Campbell 	 ... 	 Young Kenny
Frank Zieger 	 ... 	 Boyfriend

Stats:
Format                           : AVI
Format/Info                      : Audio Video Interleave
File size                        : 701 MiB
Duration                         : 1h 45mn
Overall bit rate                 : 928 Kbps
Writing application              : Nandub v1.0rc2
Writing library                  : Nandub build 1852/release

Video
ID                               : 0
Format                           : MPEG-4 Visual
Format profile                   : Advanced Simple@L5
Format settings, BVOP            : 2
Format settings, QPel            : No
Format settings, GMC             : No warppoints
Format settings, Matrix          : Default (H.263)
Codec ID                         : XVID
Codec ID/Hint                    : XviD
Duration                         : 1h 45mn
Bit rate                         : 793 Kbps
Width                            : 592 pixels
Height                           : 320 pixels
Display aspect ratio             : 1.850
Frame rate                       : 25.000 fps
Color space                      : YUV
Chroma subsampling               : 4:2:0
Bit depth                        : 8 bits
Scan type                        : Progressive
Compression mode                 : Lossy
Bits/(Pixel*Frame)               : 0.167
Stream size                      : 599 MiB (85%)
Writing library                  : XviD 64

Audio
ID                               : 1
Format                           : MPEG Audio
Format version                   : Version 1
Format profile                   : Layer 3
Mode                             : Joint stereo
Mode extension                   : MS Stereo
Codec ID                         : 55
Codec ID/Hint                    : MP3
Duration                         : 1h 45mn
Bit rate mode                    : Variable
Bit rate                         : 122 Kbps
Nominal bit rate                 : 128 Kbps
Channel(s)                       : 2 channels
Sampling rate                    : 48.0 KHz
Compression mode                 : Lossy
Stream size                      : 91.9 MiB (13%)
Alignment                        : Aligned on interleaves
Interleave, duration             : 24 ms (0.60 video frame)
Interleave, preload duration     : 470 ms
Writing library                  : LAME3.98r
Encoding settings                : -m j -V 4 -q 3 -lowpass 17 --abr 128




Release notes:
The 840105 rip was 107:02 NTSC. Our rip from the Dutch R2 DVD is 105:36 PAL = 3 mins longer.
We couldn't find any info on any alternate versions, so we just assume that it's EXTENDED.

enjoy!

Looking for:
75TB+ Archives
DUTCH/FLEMiSH Archives
                                                                                                    
Greets: CRBS EPiSODE FiCO FLS iLS KLASSiGER LiPSYNC MADE NODLABS RUNNER SPRiNTER      
   

                                                                    ASCII DONE BY XX^NFO 2oo9